<svg xmlns="http://www.w3.org/2000/svg" xmlns:xlink="http://www.w3.org/1999/xlink" width="500" zoomAndPan="magnify" viewBox="0 0 375 112.499997" height="150" preserveAspectRatio="xMidYMid meet" version="1.0"><defs><g/><clipPath id="id1"><path d="M 0.828125 0 L 112.832031 0 L 112.832031 112.003906 L 0.828125 112.003906 Z M 0.828125 0 " clip-rule="nonzero"/></clipPath></defs><path fill="rgb(0%, 19.999695%, 39.99939%)" d="M 103.710938 49.742188 C 103.210938 49.742188 102.777344 49.382812 102.699219 48.875 C 99.605469 28.796875 84.035156 13.226562 63.957031 10.132812 C 63.398438 10.046875 63.011719 9.523438 63.101562 8.964844 C 63.183594 8.40625 63.703125 8.019531 64.269531 8.105469 C 74.480469 9.683594 83.753906 14.390625 91.097656 21.734375 C 98.4375 29.078125 103.148438 38.351562 104.722656 48.558594 C 104.8125 49.117188 104.425781 49.644531 103.867188 49.730469 C 103.816406 49.734375 103.761719 49.742188 103.710938 49.742188 " fill-opacity="1" fill-rule="nonzero"/><path fill="rgb(0%, 19.999695%, 39.99939%)" d="M 9.953125 49.742188 C 9.898438 49.742188 9.847656 49.742188 9.792969 49.730469 C 9.234375 49.644531 8.855469 49.117188 8.9375 48.5625 C 10.511719 38.351562 15.222656 29.078125 22.566406 21.734375 C 29.90625 14.390625 39.179688 9.683594 49.394531 8.105469 C 49.953125 8.019531 50.476562 8.40625 50.5625 8.964844 C 50.648438 9.523438 50.261719 10.046875 49.703125 10.132812 C 29.628906 13.226562 14.054688 28.796875 10.960938 48.875 C 10.882812 49.382812 10.449219 49.742188 9.953125 49.742188 " fill-opacity="1" fill-rule="nonzero"/><path fill="rgb(0%, 19.999695%, 39.99939%)" d="M 49.550781 103.90625 C 49.5 103.90625 49.445312 103.902344 49.394531 103.894531 C 39.179688 102.320312 29.90625 97.609375 22.566406 90.265625 C 15.21875 82.925781 10.511719 73.648438 8.9375 63.4375 C 8.847656 62.878906 9.234375 62.355469 9.792969 62.269531 C 10.355469 62.183594 10.875 62.570312 10.960938 63.125 C 14.054688 83.203125 29.628906 98.777344 49.703125 101.871094 C 50.261719 101.957031 50.648438 102.476562 50.5625 103.039062 C 50.484375 103.542969 50.046875 103.90625 49.550781 103.90625 " fill-opacity="1" fill-rule="nonzero"/><path fill="rgb(0%, 19.999695%, 39.99939%)" d="M 64.109375 103.90625 C 63.613281 103.90625 63.175781 103.542969 63.097656 103.039062 C 63.011719 102.476562 63.394531 101.957031 63.953125 101.871094 C 84.035156 98.777344 99.605469 83.203125 102.699219 63.128906 C 102.785156 62.570312 103.300781 62.1875 103.867188 62.269531 C 104.425781 62.359375 104.8125 62.882812 104.722656 63.4375 C 103.148438 73.648438 98.4375 82.925781 91.097656 90.265625 C 83.753906 97.613281 74.480469 102.320312 64.269531 103.894531 C 64.214844 103.902344 64.164062 103.90625 64.109375 103.90625 " fill-opacity="1" fill-rule="nonzero"/><g clip-path="url(#id1)"><path fill="rgb(0%, 19.999695%, 39.99939%)" d="M 6.40625 56 L 46.742188 65.324219 C 47.121094 65.410156 47.421875 65.710938 47.507812 66.089844 L 56.832031 106.425781 L 66.152344 66.089844 C 66.242188 65.710938 66.539062 65.410156 66.921875 65.324219 L 107.257812 56 L 66.921875 46.679688 C 66.539062 46.589844 66.242188 46.292969 66.152344 45.90625 L 56.832031 5.574219 L 47.507812 45.90625 C 47.421875 46.292969 47.121094 46.589844 46.742188 46.679688 Z M 56.832031 112.003906 C 56.355469 112.003906 55.9375 111.675781 55.832031 111.210938 L 45.65625 67.175781 L 1.625 57 C 1.15625 56.894531 0.828125 56.476562 0.828125 56 C 0.828125 55.523438 1.15625 55.109375 1.625 55.003906 L 45.65625 44.828125 L 55.832031 0.796875 C 55.9375 0.328125 56.355469 0 56.832031 0 C 57.308594 0 57.722656 0.328125 57.828125 0.796875 L 68.003906 44.828125 L 112.035156 55.003906 C 112.503906 55.109375 112.832031 55.523438 112.832031 56 C 112.832031 56.476562 112.503906 56.894531 112.035156 57 L 68.003906 67.175781 L 57.828125 111.210938 C 57.722656 111.675781 57.308594 112.003906 56.832031 112.003906 " fill-opacity="1" fill-rule="nonzero"/></g><path fill="rgb(0%, 39.99939%, 19.999695%)" d="M 50.789062 62.042969 L 24.652344 56 L 50.789062 49.957031 L 56.832031 23.824219 L 62.871094 49.957031 L 89.007812 56 L 62.871094 62.042969 L 56.832031 88.179688 L 50.789062 62.042969 " fill-opacity="1" fill-rule="nonzero"/><path fill="rgb(0%, 19.999695%, 39.99939%)" d="M 83.988281 84.183594 C 83.816406 84.183594 83.644531 84.140625 83.488281 84.054688 L 70.097656 76.546875 C 69.605469 76.269531 69.425781 75.644531 69.707031 75.152344 C 69.980469 74.65625 70.609375 74.480469 71.097656 74.757812 L 81.3125 80.484375 L 75.585938 70.269531 C 75.3125 69.777344 75.484375 69.152344 75.980469 68.875 C 76.472656 68.597656 77.101562 68.777344 77.375 69.265625 L 84.882812 82.660156 C 85.105469 83.054688 85.035156 83.558594 84.714844 83.882812 C 84.515625 84.078125 84.253906 84.183594 83.988281 84.183594 " fill-opacity="1" fill-rule="nonzero"/><path fill="rgb(0%, 19.999695%, 39.99939%)" d="M 29.675781 84.183594 C 29.40625 84.183594 29.144531 84.078125 28.949219 83.882812 C 28.625 83.558594 28.554688 83.054688 28.777344 82.660156 L 36.28125 69.269531 C 36.5625 68.777344 37.183594 68.601562 37.675781 68.875 C 38.171875 69.15625 38.347656 69.777344 38.070312 70.273438 L 32.347656 80.484375 L 42.558594 74.761719 C 43.054688 74.484375 43.675781 74.660156 43.957031 75.15625 C 44.230469 75.648438 44.054688 76.269531 43.5625 76.550781 L 30.171875 84.054688 C 30.015625 84.140625 29.84375 84.183594 29.675781 84.183594 " fill-opacity="1" fill-rule="nonzero"/><path fill="rgb(0%, 19.999695%, 39.99939%)" d="M 37.179688 43.25 C 36.820312 43.25 36.46875 43.0625 36.28125 42.726562 L 28.777344 29.34375 C 28.554688 28.941406 28.625 28.441406 28.949219 28.117188 C 29.273438 27.796875 29.769531 27.726562 30.171875 27.949219 L 43.5625 35.449219 C 44.050781 35.726562 44.226562 36.351562 43.949219 36.847656 C 43.675781 37.339844 43.046875 37.515625 42.554688 37.242188 L 32.347656 31.519531 L 38.070312 41.726562 C 38.347656 42.21875 38.171875 42.84375 37.675781 43.121094 C 37.519531 43.214844 37.34375 43.25 37.179688 43.25 " fill-opacity="1" fill-rule="nonzero"/><path fill="rgb(0%, 19.999695%, 39.99939%)" d="M 76.484375 43.25 C 76.3125 43.25 76.140625 43.214844 75.984375 43.125 C 75.492188 42.84375 75.316406 42.222656 75.589844 41.730469 L 81.3125 31.519531 L 71.101562 37.242188 C 70.609375 37.515625 69.988281 37.339844 69.707031 36.847656 C 69.429688 36.351562 69.605469 35.730469 70.101562 35.449219 L 83.488281 27.949219 C 83.890625 27.726562 84.390625 27.796875 84.714844 28.117188 C 85.035156 28.441406 85.105469 28.941406 84.882812 29.34375 L 77.378906 42.730469 C 77.191406 43.0625 76.84375 43.25 76.484375 43.25 " fill-opacity="1" fill-rule="nonzero"/><g fill="rgb(0%, 19.999695%, 39.99939%)" fill-opacity="1"><g transform="translate(131.902564, 75.041477)"><g><path d="M 12.109375 0 L 4.015625 0 L 4.015625 -39.28125 L 12.109375 -39.28125 Z M 12.109375 0 "/></g></g></g><g fill="rgb(0%, 19.999695%, 39.99939%)" fill-opacity="1"><g transform="translate(148.006048, 75.041477)"><g><path d="M 35.453125 0 L 27.359375 0 L 11.59375 -25.84375 L 11.59375 0 L 3.5 0 L 3.5 -39.28125 L 11.59375 -39.28125 L 27.375 -13.375 L 27.375 -39.28125 L 35.453125 -39.28125 Z M 35.453125 0 "/></g></g></g><g fill="rgb(0%, 19.999695%, 39.99939%)" fill-opacity="1"><g transform="translate(187.010454, 75.041477)"><g><path d="M 3.5 0 L 3.5 -39.28125 L 15.59375 -39.28125 C 19.039062 -39.28125 22.128906 -38.5 24.859375 -36.9375 C 27.585938 -35.382812 29.710938 -33.171875 31.234375 -30.296875 C 32.765625 -27.429688 33.53125 -24.175781 33.53125 -20.53125 L 33.53125 -18.71875 C 33.53125 -15.070312 32.78125 -11.828125 31.28125 -8.984375 C 29.78125 -6.140625 27.660156 -3.9375 24.921875 -2.375 C 22.191406 -0.8125 19.109375 -0.0195312 15.671875 0 Z M 11.59375 -32.71875 L 11.59375 -6.5 L 15.515625 -6.5 C 18.679688 -6.5 21.097656 -7.53125 22.765625 -9.59375 C 24.441406 -11.664062 25.296875 -14.628906 25.328125 -18.484375 L 25.328125 -20.5625 C 25.328125 -24.550781 24.5 -27.570312 22.84375 -29.625 C 21.195312 -31.6875 18.78125 -32.71875 15.59375 -32.71875 Z M 11.59375 -32.71875 "/></g></g></g><g fill="rgb(0%, 19.999695%, 39.99939%)" fill-opacity="1"><g transform="translate(222.912854, 75.041477)"><g><path d="M 12.109375 0 L 4.015625 0 L 4.015625 -39.28125 L 12.109375 -39.28125 Z M 12.109375 0 "/></g></g></g><g fill="rgb(0%, 19.999695%, 39.99939%)" fill-opacity="1"><g transform="translate(239.016339, 75.041477)"><g><path d="M 34.34375 -13.078125 C 34.039062 -8.859375 32.476562 -5.53125 29.65625 -3.09375 C 26.84375 -0.664062 23.132812 0.546875 18.53125 0.546875 C 13.5 0.546875 9.535156 -1.144531 6.640625 -4.53125 C 3.753906 -7.925781 2.3125 -12.582031 2.3125 -18.5 L 2.3125 -20.90625 C 2.3125 -24.6875 2.976562 -28.015625 4.3125 -30.890625 C 5.644531 -33.765625 7.546875 -35.96875 10.015625 -37.5 C 12.492188 -39.039062 15.367188 -39.8125 18.640625 -39.8125 C 23.171875 -39.8125 26.820312 -38.597656 29.59375 -36.171875 C 32.363281 -33.742188 33.960938 -30.335938 34.390625 -25.953125 L 26.296875 -25.953125 C 26.097656 -28.484375 25.390625 -30.320312 24.171875 -31.46875 C 22.960938 -32.613281 21.117188 -33.1875 18.640625 -33.1875 C 15.941406 -33.1875 13.921875 -32.21875 12.578125 -30.28125 C 11.242188 -28.34375 10.554688 -25.34375 10.515625 -21.28125 L 10.515625 -18.3125 C 10.515625 -14.070312 11.15625 -10.96875 12.4375 -9 C 13.726562 -7.039062 15.757812 -6.0625 18.53125 -6.0625 C 21.03125 -6.0625 22.894531 -6.632812 24.125 -7.78125 C 25.363281 -8.925781 26.070312 -10.691406 26.25 -13.078125 Z M 34.34375 -13.078125 "/></g></g></g><g fill="rgb(0%, 19.999695%, 39.99939%)" fill-opacity="1"><g transform="translate(275.1615, 75.041477)"><g><path d="M 25.6875 -8.09375 L 11.5 -8.09375 L 8.796875 0 L 0.1875 0 L 14.8125 -39.28125 L 22.3125 -39.28125 L 37.015625 0 L 28.40625 0 Z M 13.671875 -14.65625 L 23.5 -14.65625 L 18.5625 -29.359375 Z M 13.671875 -14.65625 "/></g></g></g><g fill="rgb(0%, 19.999695%, 39.99939%)" fill-opacity="1"><g transform="translate(312.331673, 75.041477)"><g><path d="M 25.6875 -8.09375 L 11.5 -8.09375 L 8.796875 0 L 0.1875 0 L 14.8125 -39.28125 L 22.3125 -39.28125 L 37.015625 0 L 28.40625 0 Z M 13.671875 -14.65625 L 23.5 -14.65625 L 18.5625 -29.359375 Z M 13.671875 -14.65625 "/></g></g></g></svg>